{"glyphs":{":":{"x_min":0,"x_max":226,"ha":226,"o":"m 35 154 b 35 110 70 75 114 75 b 158 75 192 110 192 154 b 192 198 158 232 114 232 b 70 232 35 198 35 154 z m 35 527 b 35 483 70 448 114 448 b 158 448 192 483 192 527 b 192 571 158 605 114 605 b 70 605 35 571 35 527 z"},"$":{"x_min":0,"x_max":531,"ha":531,"o":"m 312 780 l 232 780 l 232 732 b 114 718 26 644 26 533 b 26 430 80 368 232 318 l 232 115 b 162 118 99 151 56 202 l 56 35 b 108 5 168 -13 232 -15 l 232 -60 l 312 -60 l 312 -9 b 435 14 507 100 507 196 b 507 298 465 381 324 425 l 312 428 l 312 602 b 368 593 411 567 443 539 l 443 684 b 411 706 365 726 312 732 z m 151 528 b 151 562 178 591 232 601 l 232 454 b 171 476 151 491 151 528 z m 382 201 b 382 163 357 135 312 123 l 312 291 b 366 267 382 239 382 201 z"},"?":{"x_min":0,"x_max":444,"ha":444,"o":"m 93 64 b 93 20 128 -15 172 -15 b 216 -15 250 20 250 64 b 250 108 216 142 172 142 b 128 142 93 108 93 64 z m 225 296 l 262 314 b 331 348 430 414 430 521 b 430 655 318 735 179 735 b 130 735 82 724 30 697 l 30 555 b 75 588 119 605 179 605 b 261 605 302 570 302 521 b 302 435 103 374 103 374 l 126 192 l 211 192 z"},"<":{"x_min":0,"x_max":436,"ha":436,"o":"m 11 359 l 236 82 l 404 82 l 179 359 l 404 634 l 236 634 z"},"'":{"x_min":0,"x_max":259,"ha":259,"o":"m 21 467 l 120 467 l 247 720 l 105 720 z"},"=":{"x_min":0,"x_max":703,"ha":703,"o":"m 45 464 l 45 384 l 658 384 l 658 464 z m 658 254 l 658 334 l 45 334 l 45 254 z"},"a":{"x_min":0,"x_max":610,"ha":610,"o":"m 373 720 l 237 720 l 20 0 l 156 0 l 184 97 l 425 97 l 454 0 l 590 0 z m 305 506 l 387 227 l 223 227 z"},"L":{"x_min":0,"x_max":513,"ha":513,"o":"m 175 130 l 175 720 l 45 720 l 45 0 l 507 0 l 507 130 z"},"3":{"x_min":0,"x_max":533,"ha":533,"o":"m 232 370 b 314 370 380 324 380 242 b 380 160 314 115 232 115 l 45 115 l 45 -15 l 227 -15 b 381 -15 505 88 505 242 b 505 369 420 463 303 491 l 468 720 l 45 720 l 45 590 l 213 590 l 55 370 z"},";":{"x_min":0,"x_max":262,"ha":262,"o":"m 86 327 b 86 283 121 248 165 248 b 209 248 243 283 243 327 b 243 371 209 405 165 405 b 121 405 86 371 86 327 z m 17 -188 l 116 -188 l 243 65 l 101 65 z"},"J":{"x_min":0,"x_max":648,"ha":648,"o":"m 355 216 b 355 161 310 115 254 115 b 198 115 153 160 153 216 l 23 216 b 23 88 126 -15 254 -15 b 382 -15 485 88 485 216 l 485 590 l 627 590 l 627 720 l 163 720 l 163 590 l 355 590 z"},"V":{"x_min":0,"x_max":648,"ha":648,"o":"m 634 720 l 490 720 l 324 310 l 158 720 l 14 720 l 324 -30 z"},"\"":{"x_min":0,"x_max":415,"ha":415,"o":"m 58 467 l 157 467 l 184 720 l 42 720 z m 250 467 l 349 467 l 376 720 l 234 720 z"},"7":{"x_min":0,"x_max":637,"ha":637,"o":"m 443 417 l 629 720 l 84 720 l 84 590 l 399 590 l 292 417 l 127 417 l 127 287 l 211 287 l 34 0 l 188 0 l 364 287 l 509 287 l 509 417 z"},"S":{"x_min":0,"x_max":543,"ha":543,"o":"m 331 425 b 198 467 158 477 158 528 b 158 570 199 605 281 605 b 356 605 411 573 450 539 l 450 684 b 411 711 350 735 281 735 b 142 735 33 657 33 533 b 33 424 94 361 267 310 b 363 282 389 249 389 201 b 389 147 340 115 252 115 b 177 115 109 148 63 202 l 63 35 b 119 3 183 -15 252 -15 b 416 -15 514 84 514 196 b 514 298 472 381 331 425 z"},"}":{"x_min":0,"x_max":354,"ha":354,"o":"m 39 -219 b 39 -219 255 -219 255 1 l 255 216 b 255 355 345 357 345 357 l 345 393 b 345 393 255 393 255 534 l 255 630 b 255 851 39 850 39 850 l 39 720 b 39 720 125 721 125 630 l 125 476 b 125 393 215 379 215 379 l 215 371 b 215 371 125 357 125 274 l 125 1 b 125 -89 39 -89 39 -89 z"},"Z":{"x_min":0,"x_max":743,"ha":743,"o":"m 139 720 l 139 590 l 449 590 l 29 0 l 689 0 l 689 130 l 281 130 l 704 720 z"},"x":{"x_min":0,"x_max":576,"ha":576,"o":"m 181 0 l 288 228 l 395 0 l 539 0 l 370 360 l 539 720 l 395 720 l 288 492 l 181 720 l 37 720 l 206 360 l 37 0 z"},")":{"x_min":0,"x_max":317,"ha":317,"o":"m 299 306 b 299 504 209 676 87 750 l 28 683 b 111 626 169 476 169 306 b 169 136 111 -14 28 -71 l 87 -138 b 209 -64 299 108 299 306 z"},"&":{"x_min":0,"x_max":619,"ha":619,"o":"m 597 0 l 597 130 b 569 130 549 141 527 162 b 548 223 554 290 554 342 l 423 342 b 423 320 422 298 420 279 b 396 306 368 338 335 374 b 394 424 445 484 445 560 b 445 650 376 735 268 735 b 161 735 92 647 92 560 b 92 490 104 447 160 378 b 92 330 30 282 30 188 b 30 76 119 -15 272 -15 b 358 -15 418 12 460 52 b 507 10 539 0 597 0 z m 369 147 b 345 126 310 115 262 115 b 211 115 159 147 159 198 b 159 230 192 261 235 295 z m 218 560 b 218 582 236 611 269 611 b 301 611 319 582 319 560 b 319 521 295 488 261 456 b 234 490 218 521 218 560 z"},"_":{"x_min":0,"x_max":978,"ha":978,"o":"m 45 -60 l 45 -190 l 933 -190 l 933 -60 z"},"v":{"x_min":0,"x_max":610,"ha":610,"o":"m 237 0 l 373 0 l 590 720 l 454 720 l 305 214 l 156 720 l 20 720 z"},"O":{"x_min":0,"x_max":812,"ha":812,"o":"m 31 359 b 31 152 198 -15 405 -15 b 614 -15 781 152 781 359 b 781 568 614 735 405 735 b 198 735 31 568 31 359 z m 156 359 b 156 494 268 611 405 611 b 540 611 652 494 652 359 b 652 222 540 115 405 115 b 268 115 156 222 156 359 z"},"(":{"x_min":0,"x_max":317,"ha":317,"o":"m 18 306 b 18 108 108 -64 230 -138 l 289 -71 b 206 -14 148 136 148 306 b 148 476 206 626 289 683 l 230 750 b 108 676 18 504 18 306 z"},"C":{"x_min":0,"x_max":631,"ha":631,"o":"m 590 519 l 590 684 b 534 716 470 735 401 735 b 194 735 27 568 27 359 b 27 152 194 -15 401 -15 b 470 -15 534 3 590 35 l 590 202 b 544 148 476 115 401 115 b 264 115 152 222 152 359 b 152 494 264 611 401 611 b 476 611 544 574 590 519 z"},"W":{"x_min":0,"x_max":982,"ha":982,"o":"m 959 720 l 815 720 l 649 310 l 491 735 l 333 310 l 167 720 l 23 720 l 333 -30 l 491 358 l 649 -30 z"},"A":{"x_min":0,"x_max":648,"ha":648,"o":"m 323 750 l 14 0 l 158 0 l 198 97 l 451 97 l 490 0 l 634 0 z m 324 410 l 398 227 l 250 227 z"},"f":{"x_min":0,"x_max":412,"ha":412,"o":"m 175 0 l 175 346 l 399 346 l 399 476 l 175 476 l 175 590 l 400 590 l 400 720 l 45 720 l 45 0 z"},"Q":{"x_min":0,"x_max":821,"ha":821,"o":"m 31 359 b 31 152 198 -15 405 -15 b 487 -15 562 11 623 54 l 692 -15 l 787 79 l 717 150 b 757 209 781 281 781 359 b 781 568 614 735 405 735 b 198 735 31 568 31 359 z m 156 359 b 156 494 268 611 405 611 b 540 611 652 494 652 359 b 652 222 540 115 405 115 b 268 115 156 222 156 359 z"},"w":{"x_min":0,"x_max":983,"ha":983,"o":"m 954 720 l 818 720 l 679 214 l 560 720 l 423 720 l 304 214 l 165 720 l 29 720 l 236 0 l 372 0 l 491 457 l 611 0 l 747 0 z"},"-":{"x_min":0,"x_max":311,"ha":311,"o":"m 45 425 l 45 295 l 267 295 l 267 425 z"},"E":{"x_min":0,"x_max":583,"ha":583,"o":"m 45 720 l 45 0 l 555 0 l 555 130 l 175 130 l 175 346 l 555 346 l 555 476 l 175 476 l 175 590 l 400 590 l 400 720 z"},"s":{"x_min":0,"x_max":460,"ha":460,"o":"m 33 35 b 33 35 109 -15 221 -15 b 344 -15 433 86 433 198 b 433 311 368 355 281 423 b 227 465 184 508 184 560 b 184 582 202 611 234 611 b 283 611 314 591 369 567 l 369 709 b 369 709 321 735 234 735 b 127 735 58 647 58 560 b 58 480 84 426 173 347 b 243 285 304 253 304 198 b 304 147 272 115 221 115 b 129 115 65 164 33 202 z"},">":{"x_min":0,"x_max":436,"ha":436,"o":"m 200 634 l 32 634 l 257 359 l 32 82 l 200 82 l 425 359 z"},"l":{"x_min":0,"x_max":406,"ha":406,"o":"m 175 130 l 175 720 l 45 720 l 45 0 l 397 0 l 397 130 z"},"8":{"x_min":0,"x_max":524,"ha":524,"o":"m 66 539 b 66 486 87 437 122 402 b 66 359 30 292 30 217 b 30 89 134 -15 262 -15 b 390 -15 494 89 494 217 b 494 292 458 359 402 402 b 436 437 458 486 458 539 b 458 647 370 735 262 735 b 154 735 66 647 66 539 z m 155 217 b 155 275 204 325 262 325 b 320 325 370 275 370 217 b 370 159 320 109 262 109 b 204 109 155 159 155 217 z m 190 539 b 190 580 221 611 262 611 b 303 611 334 580 334 539 b 334 498 303 467 262 467 b 221 467 190 498 190 539 z"},"\\":{"x_min":0,"x_max":529,"ha":529,"o":"m 380 -60 l 523 -60 l 149 780 l 6 780 z"},"e":{"x_min":0,"x_max":445,"ha":445,"o":"m 45 720 l 45 0 l 399 0 l 399 130 l 175 130 l 175 346 l 399 346 l 399 476 l 175 476 l 175 590 l 400 590 l 400 720 z"},"b":{"x_min":0,"x_max":632,"ha":632,"o":"m 540 507 b 540 625 442 720 327 720 l 45 720 l 45 0 l 390 0 b 505 0 603 95 603 213 b 603 286 563 353 504 391 b 526 425 540 464 540 507 z m 395 296 b 440 296 478 258 478 213 b 478 167 440 130 395 130 l 175 130 l 175 296 z m 175 426 l 175 590 l 333 590 b 378 590 415 553 415 508 b 415 463 378 426 333 426 z"},"%":{"x_min":0,"x_max":738,"ha":738,"o":"m 22 585 b 22 503 89 436 171 436 b 253 436 321 503 321 585 b 321 667 253 735 171 735 b 89 735 22 667 22 585 z m 102 585 b 102 623 133 654 171 654 b 209 654 240 623 240 585 b 240 547 209 516 171 516 b 133 516 102 547 102 585 z m 602 780 l 513 780 l 136 -60 l 225 -60 z m 416 134 b 416 52 483 -15 565 -15 b 647 -15 715 52 715 134 b 715 216 647 284 565 284 b 483 284 416 216 416 134 z m 496 134 b 496 172 527 203 565 203 b 603 203 634 172 634 134 b 634 96 603 65 565 65 b 527 65 496 96 496 134 z"},"m":{"x_min":0,"x_max":787,"ha":787,"o":"m 612 372 l 612 0 l 742 0 l 742 720 l 619 720 l 394 197 l 168 720 l 45 720 l 45 0 l 175 0 l 175 372 l 338 0 l 449 0 z"},"#":{"x_min":0,"x_max":700,"ha":700,"o":"m 566 545 l 616 751 l 535 751 l 485 545 l 303 545 l 353 751 l 272 751 l 222 545 l 84 545 l 84 465 l 203 465 l 157 273 l 19 273 l 19 193 l 138 193 l 89 -15 l 170 -15 l 219 193 l 401 193 l 352 -15 l 433 -15 l 482 193 l 616 193 l 616 273 l 501 273 l 547 465 l 681 465 l 681 545 z m 284 465 l 466 465 l 420 273 l 238 273 z"},",":{"x_min":0,"x_max":260,"ha":260,"o":"m 22 -188 l 121 -188 l 248 65 l 106 65 z"},"n":{"x_min":0,"x_max":567,"ha":567,"o":"m 522 720 l 392 720 l 392 516 l 157 720 l 45 720 l 45 0 l 175 0 l 175 532 l 392 344 l 392 0 l 522 0 z"},"h":{"x_min":0,"x_max":546,"ha":546,"o":"m 501 720 l 371 720 l 371 418 l 175 418 l 175 720 l 45 720 l 45 0 l 175 0 l 175 288 l 371 288 l 371 0 l 501 0 z"},"z":{"x_min":0,"x_max":521,"ha":521,"o":"m 54 720 l 54 590 l 308 590 l 44 130 l 44 0 l 480 0 l 480 130 l 194 130 l 460 590 l 460 720 z"},"B":{"x_min":0,"x_max":724,"ha":724,"o":"m 630 507 b 630 625 532 720 417 720 l 45 720 l 45 0 l 480 0 b 595 0 693 95 693 213 b 693 286 653 353 594 391 b 616 425 630 464 630 507 z m 485 296 b 530 296 568 258 568 213 b 568 167 530 130 485 130 l 175 130 l 175 296 z m 175 426 l 175 590 l 423 590 b 468 590 505 553 505 508 b 505 463 468 426 423 426 z"},"K":{"x_min":0,"x_max":670,"ha":670,"o":"m 602 720 l 431 720 l 175 418 l 175 720 l 45 720 l 45 0 l 175 0 l 175 217 l 281 342 l 488 0 l 640 0 l 370 447 z"},"R":{"x_min":0,"x_max":717,"ha":717,"o":"m 45 720 l 45 0 l 175 0 l 175 97 l 372 97 l 493 -15 l 681 -15 l 519 141 b 545 151 684 238 684 408 b 684 579 562 720 372 720 z m 378 590 b 478 590 560 508 560 408 b 560 309 467 227 378 227 l 175 227 l 175 590 z"},"T":{"x_min":0,"x_max":688,"ha":688,"o":"m 19 720 l 19 590 l 279 590 l 279 0 l 409 0 l 409 590 l 669 590 l 669 720 z"},"P":{"x_min":0,"x_max":610,"ha":610,"o":"m 596 442 b 596 596 472 720 318 720 l 45 720 l 45 0 l 175 0 l 175 165 l 318 165 b 472 165 596 288 596 442 z m 175 295 l 175 590 l 323 590 b 405 590 471 524 471 442 b 471 360 405 295 323 295 z"},"|":{"x_min":0,"x_max":168,"ha":168,"o":"m 125 780 l 45 780 l 45 -60 l 125 -60 z"},"t":{"x_min":0,"x_max":516,"ha":516,"o":"m 193 590 l 193 0 l 323 0 l 323 590 l 495 590 l 495 720 l 21 720 l 21 590 z"},"M":{"x_min":0,"x_max":843,"ha":843,"o":"m 422 -30 l 669 327 l 669 0 l 799 0 l 799 750 l 421 200 l 44 750 l 44 0 l 174 0 l 174 327 l 421 -30 z"},"g":{"x_min":0,"x_max":592,"ha":592,"o":"m 355 605 b 407 605 446 592 481 569 l 481 710 b 442 728 402 735 355 735 b 160 735 29 567 29 360 b 29 153 160 -15 355 -15 b 434 -15 504 13 557 60 l 557 419 l 314 419 l 314 288 l 427 288 l 427 128 b 405 119 382 115 355 115 b 220 115 159 238 159 360 b 159 482 220 605 355 605 z"},"j":{"x_min":0,"x_max":348,"ha":348,"o":"m 310 720 l 180 720 l 180 205 b 180 156 139 115 91 115 b 42 115 12 140 12 140 l 12 0 b 12 0 49 -15 91 -15 b 212 -15 310 84 310 205 z"},"i":{"x_min":0,"x_max":219,"ha":219,"o":"m 175 720 l 45 720 l 45 0 l 175 0 z"},"y":{"x_min":0,"x_max":596,"ha":596,"o":"m 28 720 l 261 336 l 103 0 l 247 0 l 586 720 l 442 720 l 328 477 l 180 720 z"},"@":{"x_min":0,"x_max":914,"ha":914,"o":"m 589 590 l 589 249 l 328 720 l 19 159 l 167 159 l 210 238 l 447 238 l 491 159 l 719 159 l 719 590 l 891 590 l 891 720 l 417 720 l 489 590 z m 19 65 l 19 0 l 891 0 l 891 65 z m 375 368 l 281 368 l 328 453 z"},".":{"x_min":0,"x_max":219,"ha":219,"o":"m 31 64 b 31 20 66 -15 110 -15 b 154 -15 188 20 188 64 b 188 108 154 142 110 142 b 66 142 31 108 31 64 z"},"p":{"x_min":0,"x_max":569,"ha":569,"o":"m 175 426 l 175 590 l 353 590 b 398 590 435 553 435 508 b 435 463 398 426 353 426 z m 175 0 l 175 294 l 347 294 b 462 294 560 389 560 507 b 560 625 462 720 347 720 l 45 720 l 45 0 z"},"X":{"x_min":0,"x_max":735,"ha":735,"o":"m 367 462 l 194 720 l 37 720 l 279 360 l 37 0 l 194 0 l 367 258 l 541 0 l 698 0 l 456 360 l 698 720 l 541 720 z"},"*":{"x_min":0,"x_max":352,"ha":352,"o":"m 214 781 l 138 781 l 144 658 l 27 676 l 21 598 l 132 592 l 39 512 l 94 454 l 177 546 l 258 454 l 313 512 l 220 592 l 331 598 l 325 676 l 208 658 z"},"Y":{"x_min":0,"x_max":688,"ha":688,"o":"m 675 720 l 532 720 l 348 330 l 165 720 l 22 720 l 277 178 l 193 0 l 337 0 z"},"c":{"x_min":0,"x_max":491,"ha":491,"o":"m 155 360 b 155 482 216 605 351 605 b 388 605 420 595 447 579 l 447 720 b 417 730 385 735 351 735 b 156 735 25 567 25 360 b 25 153 156 -15 351 -15 b 385 -15 417 -10 447 0 l 447 141 b 420 124 388 115 351 115 b 216 115 155 238 155 360 z"},"!":{"x_min":0,"x_max":225,"ha":225,"o":"m 34 64 b 34 20 69 -15 113 -15 b 157 -15 191 20 191 64 b 191 108 157 142 113 142 b 69 142 34 108 34 64 z m 178 750 l 47 750 l 47 415 l 70 232 l 155 232 l 178 415 z"},"/":{"x_min":0,"x_max":529,"ha":529,"o":"m 523 780 l 380 780 l 6 -60 l 149 -60 z"},"[":{"x_min":0,"x_max":340,"ha":340,"o":"m 175 -89 l 175 720 l 311 720 l 311 850 l 45 850 l 45 -219 l 311 -219 l 311 -89 z"},"6":{"x_min":0,"x_max":560,"ha":560,"o":"m 272 720 l 59 376 b 35 337 22 290 22 242 b 22 100 137 -15 279 -15 b 421 -15 536 100 536 242 b 536 381 426 494 288 499 l 422 720 z m 152 242 b 152 313 208 370 279 370 b 350 370 407 313 407 242 b 407 171 350 115 279 115 b 208 115 152 171 152 242 z"},"r":{"x_min":0,"x_max":633,"ha":633,"o":"m 45 720 l 45 0 l 175 0 l 175 224 l 317 224 l 428 0 l 576 0 l 453 245 b 540 284 600 370 600 471 b 600 609 489 720 351 720 z m 353 590 b 418 590 470 538 470 473 b 470 408 418 356 353 356 l 175 356 l 175 590 z"},"2":{"x_min":0,"x_max":532,"ha":532,"o":"m 503 0 l 503 130 l 161 130 b 161 209 205 254 264 310 b 370 411 436 460 436 560 b 436 647 367 735 260 735 b 173 735 125 709 125 709 l 125 567 b 180 591 211 611 260 611 b 292 611 310 582 310 560 b 310 508 227 455 173 403 b 96 329 31 261 31 130 l 31 0 z"},"{":{"x_min":0,"x_max":354,"ha":354,"o":"m 315 -89 b 315 -89 229 -89 229 1 l 229 274 b 229 357 139 371 139 371 l 139 379 b 139 379 229 393 229 476 l 229 630 b 229 721 315 720 315 720 l 315 850 b 315 850 99 851 99 630 l 99 534 b 99 393 9 393 9 393 l 9 357 b 9 357 99 355 99 216 l 99 1 b 99 -219 315 -219 315 -219 z"},"9":{"x_min":0,"x_max":560,"ha":560,"o":"m 288 -15 l 501 329 b 525 368 538 415 538 463 b 538 605 423 720 281 720 b 139 720 24 605 24 463 b 24 324 134 211 272 206 l 138 -15 z m 408 463 b 408 392 352 335 281 335 b 210 335 153 392 153 463 b 153 534 210 590 281 590 b 352 590 408 534 408 463 z"}," ":{"x_min":0,"x_max":462,"ha":462,"o":""},"I":{"x_min":0,"x_max":524,"ha":524,"o":"m 45 720 l 45 590 l 197 590 l 197 130 l 45 130 l 45 0 l 479 0 l 479 130 l 327 130 l 327 590 l 479 590 l 479 720 z"},"H":{"x_min":0,"x_max":736,"ha":736,"o":"m 691 720 l 561 720 l 561 395 l 175 395 l 175 720 l 45 720 l 45 0 l 175 0 l 175 265 l 561 265 l 561 0 l 691 0 z"},"4":{"x_min":0,"x_max":666,"ha":666,"o":"m 7 96 l 412 96 l 412 0 l 542 0 l 542 96 l 638 96 l 638 226 l 543 226 l 543 720 l 392 720 z m 240 226 l 412 507 l 412 226 z"},"~":{"x_min":0,"x_max":611,"ha":611,"o":"m 252 276 l 348 179 l 592 317 l 530 382 l 359 315 l 263 412 l 19 274 l 81 209 z"},"D":{"x_min":0,"x_max":667,"ha":667,"o":"m 305 0 b 505 0 636 140 636 359 b 636 579 505 720 305 720 l 45 720 l 45 0 z m 175 590 l 305 590 b 432 590 505 497 505 360 b 505 223 432 130 305 130 l 175 130 z"},"0":{"x_min":0,"x_max":733,"ha":733,"o":"m 156 361 b 156 476 249 570 364 570 b 479 570 573 476 573 361 b 573 246 479 153 364 153 b 249 153 156 246 156 361 z m 31 359 b 31 174 181 24 366 24 b 551 24 702 174 702 359 b 702 544 551 695 366 695 b 181 695 31 544 31 359 z"},"F":{"x_min":0,"x_max":561,"ha":561,"o":"m 175 346 l 400 346 l 400 476 l 175 476 l 175 590 l 556 590 l 556 720 l 45 720 l 45 0 l 175 0 z"},"`":{"x_min":0,"x_max":232,"ha":232,"o":"m 18 953 l 98 781 l 205 781 l 155 953 z"},"k":{"x_min":0,"x_max":583,"ha":583,"o":"m 520 720 l 363 720 l 175 458 l 175 720 l 45 720 l 45 0 l 175 0 l 175 236 l 236 321 l 404 0 l 552 0 l 321 441 z"},"u":{"x_min":0,"x_max":543,"ha":543,"o":"m 503 720 l 373 720 l 373 216 b 373 161 328 115 272 115 b 216 115 171 160 171 216 l 171 720 l 41 720 l 41 216 b 41 88 144 -15 272 -15 b 400 -15 503 88 503 216 z"},"]":{"x_min":0,"x_max":340,"ha":340,"o":"m 30 -89 l 30 -219 l 296 -219 l 296 850 l 30 850 l 30 720 l 166 720 l 166 -89 z"},"U":{"x_min":0,"x_max":717,"ha":717,"o":"m 679 720 l 549 720 l 549 305 b 549 200 463 115 359 115 b 255 115 169 200 169 305 l 169 720 l 39 720 l 39 305 b 39 128 182 -15 358 -15 b 535 -15 679 128 679 305 z"},"o":{"x_min":0,"x_max":683,"ha":683,"o":"m 31 360 b 31 188 169 50 341 50 b 513 50 652 188 652 360 b 652 532 513 671 341 671 b 169 671 31 532 31 360 z m 162 360 b 162 460 242 540 341 540 b 441 540 521 460 521 360 b 521 261 441 181 341 181 b 242 181 162 261 162 360 z"},"N":{"x_min":0,"x_max":564,"ha":564,"o":"m 521 720 l 391 720 l 391 329 l 44 750 l 44 0 l 174 0 l 174 386 l 521 -30 z"},"+":{"x_min":0,"x_max":542,"ha":542,"o":"m 336 418 l 336 613 l 206 613 l 206 418 l 11 418 l 11 288 l 206 288 l 206 93 l 336 93 l 336 288 l 531 288 l 531 418 z"},"G":{"x_min":0,"x_max":687,"ha":687,"o":"m 438 264 l 521 264 l 521 145 b 485 126 445 115 402 115 b 265 115 153 222 153 359 b 153 494 265 611 402 611 b 477 611 544 575 590 520 l 590 685 b 535 717 470 735 402 735 b 195 735 28 568 28 359 b 28 152 195 -15 402 -15 b 498 -15 585 20 651 78 l 651 395 l 438 395 z"},"q":{"x_min":0,"x_max":718,"ha":718,"o":"m 357 -15 b 424 -15 483 4 532 39 l 587 -15 l 680 76 l 621 134 b 661 197 683 275 683 360 b 683 567 552 735 357 735 b 162 735 31 567 31 360 b 31 153 162 -15 357 -15 z m 357 605 b 492 605 553 482 553 360 b 553 238 492 115 357 115 b 222 115 161 238 161 360 b 161 482 222 605 357 605 z"},"d":{"x_min":0,"x_max":534,"ha":534,"o":"m 175 0 b 375 0 506 130 506 359 b 506 589 375 720 175 720 l 45 720 l 45 0 z m 175 590 b 302 590 375 507 375 360 b 375 213 302 130 175 130 z"},"1":{"x_min":0,"x_max":215,"ha":215,"o":"m 171 721 l 41 641 l 41 0 l 171 0 z"},"5":{"x_min":0,"x_max":524,"ha":524,"o":"m 175 500 l 175 590 l 433 590 l 433 720 l 45 720 l 45 370 l 222 370 b 304 370 370 324 370 242 b 370 160 304 115 222 115 l 45 115 l 45 -15 l 217 -15 b 371 -15 495 88 495 242 b 495 396 371 500 217 500 z"}}}
